<?xml version="1.0" encoding="utf-8"?>
<!-- Generator: Adobe Illustrator 25.4.1, SVG Export Plug-In . SVG Version: 6.00 Build 0)  -->
<svg version="1.1" id="Layer_1" xmlns="http://www.w3.org/2000/svg" xmlns:xlink="http://www.w3.org/1999/xlink" x="0px" y="0px"
	 viewBox="0 0 258 293" style="enable-background:new 0 0 258 293;" xml:space="preserve">
<g>
	<path d="M118.46,205.45c-3.65,2.89-7.87,4.75-12.4,5.03c-9.02,0.57-18.08,0.94-27.11,0.72c-7.29-0.18-11.69-5.48-11.71-12.86
		c-0.02-7.55-0.05-15.1,0.02-22.66c0.02-2.29-0.93-3.66-3.02-4.48c-4.27-1.68-8.52-3.42-12.76-5.18c-4.6-1.91-5.75-5.24-3.29-9.63
		c3.5-6.25,6.98-12.51,10.59-18.69c1.19-2.03,1.39-4,1.04-6.26c-1.23-8.01-1.62-16.03-0.39-24.11c0.6-3.93,1.45-4.92,2.57-8.67
		c-0.57,0.46-1.13,0.92-1.69,1.39c-1.67,1.41-4.43,4.26-6.85,6.38c-2.37,9.84-1.83,12.36-0.3,22.79c0.44,3.02,0.1,5.6-1.58,8.29
		c-3.31,5.3-6.26,10.83-9.27,16.31c-3.87,7.06-1.23,14.64,6.15,17.8c3.53,1.51,7.06,3.02,10.65,4.36c1.38,0.52,1.79,1.23,1.78,2.65
		c-0.06,7.02-0.04,14.05,0.01,21.07c0.03,4.75,1.88,8.79,5.12,12.21c3.8,4,8.56,5.77,14,5.8c5.34,0.03,10.68,0.01,16.28,0.01
		c0,1.02,0,1.83,0,2.64c0,6.57-0.03,13.14,0.02,19.71c0.01,2.14,1.48,3.62,3.3,3.54c1.73-0.07,2.99-1.5,3.03-3.55
		c0.04-1.89,0.01-3.78,0.01-5.66c0-5.57,0-11.15,0-16.87c0.65-0.1,0.95-0.14,1.25-0.18c6.66-0.86,13-2.59,18.41-6.82
		c1.87-1.46,2.26-3.4,1.11-4.9C122.2,204.05,120.38,203.93,118.46,205.45z"/>
	<path d="M218.73,110.88c-0.7-0.31-0.8-0.35-0.31-0.14c-0.39-0.16-0.78-0.3-1.18-0.43c-0.55-0.18-1.1-0.31-1.66-0.41
		c0.67,6.16,0.6,12.45-0.26,18.84c-2.77,20.63-12.41,37.55-28.39,50.91c-5.74,4.8-9.56,11.02-9.84,18.47
		c-0.52,13.95-0.32,27.94-0.36,41.91c-0.01,2.25,1.42,3.65,3.25,3.59c1.77-0.05,2.94-1.37,3.1-3.52c0.05-0.68,0.02-1.36,0.02-2.04
		c0-11.78,0.05-23.57-0.02-35.35c-0.05-7.85,2.98-14.12,8.99-19.14c21.21-17.71,32.06-44.5,30.02-71.26
		C220.96,111.86,219.85,111.36,218.73,110.88z"/>
	<path d="M69.49,67.2c-1.2,1.31-1.55,3.01-0.29,4.29c0.75,0.76,2.27,1.17,3.37,1.05c0.85-0.09,1.62-1.21,2.35-1.95
		c4.25-4.38,8.05-9.32,12.78-13.08c21.73-17.3,46.17-21.71,72.81-14.17c2.68,0.76,5.28,1.7,7.83,2.79
		c23.84,10.83,34.65,28.05,37.95,34.33c1.26-2.04,2.43-4.15,3.84-6.1c-8.8-14.48-19.97-23.13-26.9-27.48l0.04-0.03
		c-0.06-0.01-0.12-0.04-0.18-0.06c-3.85-2.41-6.36-3.48-6.36-3.48l-0.02,0c-14.04-7.45-29.13-10.77-45.33-9.61
		c-18.99,1.35-35.72,8.25-49.98,20.8C77.06,58.32,73.41,62.92,69.49,67.2z"/>
	<path d="M182.71,157.84c8.85-9.27,14.25-20.18,16.05-32.44c3.13-21.35-3.1-39.8-18.51-54.82c-8.95-8.72-19.92-14.17-32.62-16.19
		c-14.28-2.27-28.4,0.61-41.97,8.56c-7.08,4.15-13.1,9.58-17.89,16.14c-1,1.37-1.08,2.64-0.22,3.77c0.57,0.74,1.34,1.16,2.17,1.18
		c0.93,0.03,1.79-0.42,2.49-1.26c0.5-0.6,0.99-1.21,1.48-1.83c0.81-1.02,1.66-2.07,2.54-3.04c4.67-5.09,10.34-9.28,16.88-12.45
		c-1.62,2.05-3.38,4.56-4.73,7.39c-5.73,12.01-2.94,26.91,6.79,36.23c6.33,6.06,14,9.17,22.8,9.23c13.02,0.09,24.24,9.81,26.09,22.6
		c1.04,7.15-0.77,14.26-5.09,20c-4.24,5.65-10.41,9.29-17.37,10.26c-4.18,0.58-8.78,0.33-14.46-0.79
		c-12.1-2.39-22.49-8.29-30.87-17.54c-7.12-7.85-11.71-17.12-13.62-27.55c-1.44-7.81-1.17-15.75,0.8-23.62
		c0.41-1.66-0.37-3.2-1.87-3.67c-0.8-0.25-1.65-0.16-2.34,0.25c-0.68,0.4-1.16,1.08-1.33,1.9l-0.16,0.77
		c-0.59,2.79-1.21,5.68-1.5,8.56c-0.92,9.09,0.12,17.88,3.1,26.13c6.59,18.28,19.21,31.05,37.5,37.97
		c6.41,2.43,13.28,3.65,20.43,3.65c0.48,0,0.96-0.01,1.45-0.02C156,176.82,170.8,170.3,182.71,157.84z M169.53,138.76
		c-2.93-15.3-16-26.09-31.78-26.23c-7.51-0.07-13.88-2.77-18.92-8.02c-6.4-6.66-8.8-14.41-7.14-23.02
		c1.62-8.4,6.76-14.89,15.26-19.27c3.68-1.9,7.62-2.83,12.22-2.83c2.49,0,5.18,0.27,8.13,0.81c13.3,2.43,24.37,8.73,32.89,18.73
		c10.95,12.85,15.33,27.75,13.02,44.3c-2.23,15.96-10.25,28.88-23.86,38.41c-1.75,1.23-3.66,2.31-5.5,3.35
		c-0.45,0.26-0.9,0.51-1.35,0.77C169.07,157.81,171.44,148.72,169.53,138.76z"/>
	<path d="M137.78,158.09c0,0,0.01,0,0.02,0c3.51,0,6.82-1.39,9.3-3.89c2.49-2.51,3.86-5.83,3.85-9.35c0-3.51-1.39-6.82-3.89-9.3
		c-2.5-2.48-5.82-3.85-9.34-3.85c-0.01,0-0.01,0-0.02,0c-3.53,0.01-6.83,1.39-9.31,3.88c-2.48,2.5-3.84,5.82-3.83,9.36
		C124.57,152.19,130.5,158.09,137.78,158.09z M130.35,144.94c-0.01-4.1,3.27-7.44,7.32-7.46c0.01,0,0.02,0,0.03,0
		c2.01,0,3.89,0.77,5.3,2.17c1.4,1.4,2.17,3.26,2.17,5.24c0,4.08-3.32,7.4-7.4,7.4c0,0-0.01,0-0.01,0
		C133.68,152.3,130.36,149,130.35,144.94z"/>
	<path d="M81.44,90.58L81.44,90.58c-0.01,1.62,1.19,2.86,2.8,2.89c0.02,0,0.04,0,0.06,0c0.78,0,1.54-0.31,2.09-0.86
		c0.55-0.55,0.84-1.27,0.83-2.04c-0.03-1.56-1.34-2.83-2.91-2.83c0,0,0,0,0,0C82.74,87.73,81.46,89.01,81.44,90.58z"/>
	<path d="M137.75,72.77C137.75,72.77,137.74,72.77,137.75,72.77c-7.28,0-13.19,5.93-13.19,13.2c0,3.53,1.37,6.85,3.86,9.34
		c2.49,2.49,5.8,3.86,9.33,3.86c0,0,0,0,0.01,0c7.28,0,13.2-5.93,13.2-13.21c0-3.52-1.38-6.83-3.87-9.33
		C144.59,74.14,141.27,72.77,137.75,72.77z M130.35,85.98c0-4.08,3.3-7.41,7.35-7.42c0.01,0,0.01,0,0.02,0c2,0,3.88,0.77,5.28,2.18
		c1.4,1.4,2.17,3.27,2.17,5.27c-0.01,4.07-3.34,7.37-7.43,7.37c0,0,0,0-0.01,0C133.67,93.37,130.35,90.05,130.35,85.98z"/>
	<path d="M188.16,48.51c1.5,0.08,3.01,0.16,4.51,0.24l4.84,0.25c2.84,0.15,5.69,0.29,8.53,0.45c0.08,0,0.15,0.01,0.23,0.01
		c1.06,0,1.9-0.41,2.49-1.23c0.68-0.95,0.78-2.03,0.28-3.05c-0.52-1.05-1.42-1.64-2.61-1.7c-3.09-0.16-6.17-0.33-9.26-0.5l-1.79-0.1
		l16.33-14.61l0.14-0.13c0.13-0.11,0.26-0.23,0.39-0.35c1.11-1.1,1.18-2.89,0.15-4.08c-0.54-0.62-1.26-0.99-2.03-1.03
		c-0.84-0.04-1.68,0.27-2.39,0.9l-16.59,14.84c0.22-3.65,0.43-7.31,0.63-10.97c0.1-1.81-1.07-3.2-2.77-3.31
		c-0.81-0.05-1.58,0.19-2.15,0.7c-0.61,0.54-0.98,1.35-1.04,2.27c-0.35,5.96-0.71,11.91-1.05,17.87c-0.06,1.05,0.18,1.89,0.73,2.5
		C186.27,48.1,187.09,48.45,188.16,48.51z"/>
	<path d="M52.17,28.15l16.47,14.73l-1.79,0.1c-3.09,0.17-6.18,0.34-9.26,0.5c-1.18,0.06-2.08,0.65-2.61,1.7
		c-0.5,1.02-0.41,2.1,0.28,3.05c0.59,0.82,1.42,1.23,2.48,1.23c0.07,0,0.15,0,0.23-0.01c2.83-0.15,5.67-0.3,8.5-0.44l4.84-0.25
		c1.51-0.08,3.03-0.16,4.54-0.24c1.07-0.06,1.9-0.4,2.45-1.02c0.54-0.61,0.79-1.45,0.73-2.5c-0.35-5.96-0.7-11.91-1.05-17.87
		c-0.06-0.93-0.42-1.73-1.04-2.27c-0.57-0.5-1.33-0.75-2.15-0.7c-1.71,0.11-2.87,1.51-2.77,3.31c0.2,3.66,0.41,7.31,0.63,10.97
		L56.06,23.58c-0.71-0.63-1.56-0.94-2.39-0.9c-0.77,0.05-1.49,0.42-2.03,1.04c-1.03,1.18-0.96,2.97,0.15,4.08
		C51.91,27.92,52.04,28.03,52.17,28.15z"/>
	<path d="M53.15,90.29c-2.15,2.17-4.31,4.35-6.47,6.51c-0.84,0.84-1.11,1.88-0.79,3.01c0.31,1.09,1.11,1.83,2.25,2.08
		c0.22,0.05,0.44,0.07,0.66,0.07c0.79,0,1.52-0.33,2.17-0.99c2.04-2.05,4.09-4.11,6.13-6.16l3.48-3.49
		c1.01-1.01,2.02-2.02,3.02-3.04c0.76-0.77,1.14-1.57,1.13-2.4c-0.01-0.81-0.39-1.6-1.14-2.34c-4.25-4.19-8.51-8.37-12.77-12.55
		c-0.66-0.65-1.43-0.98-2.29-0.99c-0.76,0.01-1.5,0.34-2.06,0.93c-1.19,1.23-1.12,3.04,0.16,4.32c2.6,2.57,5.21,5.14,7.82,7.71
		L32.2,83.09c-0.95,0.01-1.79,0.34-2.37,0.94c-0.54,0.55-0.83,1.31-0.81,2.13c0.03,1.57,1.28,2.85,2.85,2.92
		c0.17,0.01,0.34,0,0.51,0l22.11-0.12L53.15,90.29z"/>
	<path d="M237.17,88.36c-0.6-0.59-1.45-0.91-2.39-0.89l-22.25,0.35c2.56-2.62,5.11-5.24,7.66-7.87c1.26-1.3,1.29-3.11,0.07-4.32
		c-0.58-0.58-1.33-0.87-2.08-0.88c-0.82,0.01-1.62,0.38-2.27,1.04c-4.17,4.27-8.34,8.54-12.5,12.82c-0.73,0.75-1.1,1.55-1.09,2.36
		c0.01,0.82,0.41,1.62,1.18,2.37c1.11,1.08,2.23,2.15,3.34,3.22l9.56,9.2c0.65,0.63,1.36,0.94,2.13,0.94c0.23,0,0.47-0.03,0.72-0.09
		c1.14-0.27,1.92-1.03,2.21-2.12c0.29-1.13,0-2.17-0.86-2.99c-2.24-2.16-4.48-4.32-6.72-6.48l-1.24-1.2l21.91-0.35l0.19,0
		c0.17,0,0.35,0,0.52-0.01c1.56-0.1,2.79-1.41,2.79-2.98C238.02,89.65,237.72,88.9,237.17,88.36z"/>
</g>
</svg>
