<?xml version="1.0" encoding="utf-8"?>
<!-- Generator: Adobe Illustrator 25.4.1, SVG Export Plug-In . SVG Version: 6.00 Build 0)  -->
<svg version="1.1" id="Layer_1" xmlns="http://www.w3.org/2000/svg" xmlns:xlink="http://www.w3.org/1999/xlink" x="0px" y="0px"
	 viewBox="0 0 258 293" style="enable-background:new 0 0 258 293;" xml:space="preserve">
<g>
	<path d="M131.76,55.31c7.05-5.04,14.55-5.31,20.23-0.59c1.68,1.39,3.23,3.26,4.11,5.23c12.62,28.48,25.22,56.96,37.6,85.54
		c5.57,12.86,7.25,26.57,7.54,40.46c0.16,7.9,0.03,15.81,0.03,23.75c6.72,1.67,12.82,3.19,18.93,4.72c0.81,0.2,1.63,0.34,2.41,0.63
		c2.59,0.94,3.92,3.64,3.14,6.27c-0.69,2.33-3.13,3.88-5.7,3.27c-8.16-1.92-16.31-3.91-24.43-6c-2.72-0.7-3.76-2.51-3.82-5.7
		c-0.15-7.75-0.48-15.49-0.43-23.24c0.1-17.32-3.44-33.8-10.54-49.6c-11.19-24.93-22.2-49.95-33.28-74.93
		c-0.9-2.02-2.19-3.52-4.58-3.69c-4.27-0.3-6.69,2.62-5.26,6.65c2.83,7.98,5.82,15.9,8.76,23.85c1.53,4.13,3,8.28,4.69,12.34
		c0.4,0.96,1.42,1.99,2.39,2.35c5.15,1.91,8.71,5.47,10.06,10.65c3.54,13.58,6.78,27.23,10.05,40.88c0.69,2.86-1.07,5.38-3.85,6.05
		c-2.71,0.65-5.22-1.08-6-4.26c-2.2-9.03-4.35-18.08-6.54-27.12c-0.94-3.87-1.95-7.73-2.93-11.59c-0.16-0.64-0.33-1.29-0.6-1.89
		c-1.14-2.5-3.21-3.71-5.3-3.16c-2.48,0.65-3.9,2.68-3.61,5.51c0.51,5.05,1.16,10.08,1.72,15.13c0.61,5.62,1.16,11.25,1.77,16.87
		c0.59,5.4-0.84,10.29-3.2,15.13c-2.39,4.9-4.89,9.9-6.2,15.14c-2.21,8.83-0.59,17.71,1.68,26.38c1.79,6.82,3.25,13.8,7.74,19.55
		c1.28,1.64,2.74,3.13,4.09,4.71c2,2.32,2.03,5.29,0.1,7.2c-2.02,2-5.04,1.89-7.37-0.34c-6.24-5.98-10.13-13.31-12.34-21.6
		c-0.21-0.8-0.48-1.58-0.73-2.37c-0.02-0.07-0.11-0.11-0.4-0.38c-0.31,0.81-0.66,1.5-0.84,2.23c-3.06,12.95-10.91,22.37-21.71,29.68
		c-12.86,8.71-27.15,13.98-42.16,17.37c-7.52,1.7-15.2,2.72-22.83,3.96c-3.57,0.58-6.11-1.15-6.49-4.17
		c-0.41-3.26,1.52-5.29,5.34-5.74c19.12-2.26,37.64-6.59,54.65-15.99c3.48-1.92,6.78-4.23,9.94-6.65
		c6.52-5.01,10.9-11.5,13.19-19.49c2.87-10.03,5.7-20.08,4.42-30.63c-0.48-3.97-1.97-7.84-3.15-11.71
		c-0.43-1.41-1.17-2.78-1.99-4.01c-5.27-7.95-5.52-16.63-4.2-25.69c1.17-8.06,1.95-16.18,2.85-24.29c0.34-3.08-1.17-5.3-3.81-5.85
		c-2.31-0.48-4.7,1.25-5.52,4.36c-1.63,6.18-3.1,12.41-4.61,18.62c-1.67,6.86-3.31,13.72-4.99,20.58c-0.83,3.41-3.23,5.2-6.01,4.55
		c-3.19-0.75-4.52-3.29-3.62-6.99c3.06-12.67,6.1-25.35,9.19-38.01c1.52-6.24,4.99-10.78,11.35-12.78c0.64-0.2,1.3-0.98,1.55-1.64
		c4.54-12.04,9.04-24.1,13.49-36.18c1.25-3.39,0.46-5.53-2.2-6.71c-2.87-1.27-5.39-0.4-7.21,2.51c-1.89,3.02-4.5,3.88-7.13,2.36
		c-2.58-1.49-3.14-4.28-1.48-7.41c4.21-7.97,14.47-10.47,22.17-5.39C130.49,54.36,131.07,54.82,131.76,55.31z M121.72,108.06
		c4.95,3.56,7.57,8.19,6.97,14.18c-0.95,9.43-1.72,18.9-3.33,28.22c-1.49,8.62,2.66,15.11,6.46,22.32c1.61-3.2,2.96-6.05,4.46-8.81
		c1.72-3.17,2.46-6.48,2.05-10.08c-0.98-8.59-1.72-17.21-2.91-25.76c-1.08-7.77-1.24-15.05,6.43-19.98
		c-3.3-8.85-6.55-17.58-10.08-27.04C128.26,90.53,125.03,99.2,121.72,108.06z"/>
	<path d="M62.19,209.7c0-6.36,0.09-12.61-0.02-18.85c-0.32-20.06,4-39.07,12.39-57.27c5.46-11.84,10.52-23.87,15.79-35.8
		c1.49-3.36,4.18-4.61,6.95-3.35c2.8,1.27,3.64,4.05,2.2,7.39c-6.68,15.48-13.46,30.92-20.03,46.45
		c-5.06,11.96-6.87,24.61-7.19,37.5c-0.23,9.08-0.35,18.16-0.53,27.24c-0.06,3.1-1.2,4.94-3.93,5.63
		c-8.13,2.07-16.27,4.09-24.44,5.96c-3.35,0.76-6.09-1.97-5.72-5.38c0.26-2.35,1.65-3.74,3.89-4.31c5.96-1.49,11.93-2.96,17.89-4.45
		C60.15,210.28,60.87,210.06,62.19,209.7z"/>
	<path d="M220.42,271.14c-10.69-2.28-21.39-4.53-32.08-6.87c-1.85-0.4-3.65-1.1-5.45-1.73c-3.16-1.1-4.51-3.48-3.65-6.31
		c0.84-2.76,3.44-4.05,6.62-3.18c4.64,1.26,9.2,2.87,13.9,3.81c7.07,1.42,14.22,2.43,21.35,3.55c3.1,0.48,4.94,2.42,4.81,5.3
		c-0.14,2.82-2.33,4.75-5.36,4.71C220.52,270.66,220.47,270.9,220.42,271.14z"/>
	<path d="M126.78,27.66c0-2.67-0.04-5.33,0.01-7.99c0.06-3.02,2.14-5.18,4.92-5.21c2.77-0.04,5,2.12,5.03,5.09
		c0.07,5.41,0.07,10.83-0.01,16.24c-0.04,2.8-2.27,4.96-4.9,5c-2.71,0.04-4.96-2.18-5.03-5.12
		C126.73,32.99,126.78,30.33,126.78,27.66z"/>
	<path d="M33.65,120.94c2.58,0,5.16-0.03,7.75,0.01c2.97,0.05,5.22,2.16,5.28,4.87c0.06,2.68-2.17,5.02-5.12,5.07
		c-5.41,0.09-10.83,0.1-16.24-0.01c-2.91-0.06-5.11-2.48-5.01-5.16c0.1-2.67,2.23-4.66,5.1-4.78c0.08,0,0.17,0,0.25,0
		C28.32,120.94,30.98,120.94,33.65,120.94z"/>
	<path d="M229.82,130.92c-2.5,0-5,0.04-7.5-0.01c-3.13-0.07-5.45-2.25-5.45-5.01c0-2.78,2.31-4.94,5.44-4.96
		c5.16-0.03,10.33-0.03,15.49,0c3.18,0.02,5.43,2.12,5.44,4.94c0,2.79-2.29,4.95-5.42,5.02
		C235.15,130.97,232.48,130.92,229.82,130.92z"/>
	<path d="M78.85,28.27c1.33,0.98,3.08,1.68,3.91,2.98c2.95,4.62,5.65,9.41,8.3,14.21c1.38,2.5,0.44,5.36-1.89,6.71
		c-2.37,1.38-5.18,0.75-6.72-1.8c-2.84-4.7-5.61-9.44-8.2-14.27C72.39,32.63,74.7,28.83,78.85,28.27z"/>
	<path d="M189.91,34.14c-0.1,0.36-0.19,1.23-0.59,1.92c-2.69,4.78-5.38,9.57-8.21,14.27c-1.54,2.56-4.33,3.21-6.71,1.87
		c-2.43-1.38-3.29-4.27-1.82-6.91c2.62-4.72,5.34-9.4,8.11-14.04c1.33-2.22,3.48-2.96,5.8-2.29
		C188.48,29.54,189.9,31.5,189.91,34.14z"/>
	<path d="M34.21,72.91c0.49-3.97,4.18-6.41,7.53-4.65c5.07,2.68,10.01,5.61,14.89,8.62c2.25,1.39,2.69,4.19,1.42,6.41
		c-1.24,2.17-4.01,3.29-6.24,2.08c-5.12-2.77-10.17-5.67-15.09-8.77C35.57,75.88,35.03,74.17,34.21,72.91z"/>
	<path d="M229.4,73.05c-1.05,1.35-1.85,3.12-3.21,3.99c-4.47,2.85-9.11,5.42-13.75,7.99c-2.67,1.48-5.5,0.71-6.92-1.67
		c-1.48-2.49-0.7-5.33,2.09-7c4.48-2.67,8.99-5.32,13.55-7.84C224.88,66.47,228.84,68.65,229.4,73.05z"/>
	<path d="M170.33,249.86c0,2.76-2.08,4.95-4.78,5.03c-2.66,0.08-5.14-2.34-5.15-5.02c-0.01-2.7,2.38-5,5.14-4.94
		C168.31,244.98,170.33,247.07,170.33,249.86z"/>
	<path d="M103.49,75.81c2.81,0,4.89,2.04,4.93,4.84c0.03,2.8-2.03,4.97-4.77,5.04c-2.83,0.07-5.12-2.17-5.1-5.01
		C98.57,77.93,100.72,75.81,103.49,75.81z"/>
</g>
</svg>
