<?xml version="1.0" encoding="utf-8"?>
<!-- Generator: Adobe Illustrator 25.4.1, SVG Export Plug-In . SVG Version: 6.00 Build 0)  -->
<svg version="1.1" id="Layer_1" xmlns="http://www.w3.org/2000/svg" xmlns:xlink="http://www.w3.org/1999/xlink" x="0px" y="0px"
	 viewBox="0 0 272 350.7" style="enable-background:new 0 0 272 350.7;" xml:space="preserve">
<style type="text/css">
	.st0{fill:#F9ECD3;}
	.st1{fill:#373A44;}
	.st2{fill:#F0BA3F;}
	.st3{fill:#EC5E66;}
</style>
<path class="st0" d="M192.1,164.5c-0.1,5.8-0.4,11.5-2.1,17.1c-2.5,8-6.4,15.2-12.1,21.4c-5.2,5.6-11.1,10.1-18.2,13.1
	c-1.2,0.5-1.2,1.4-1.2,2.4c-0.2,5.2,0.8,10,3.5,14.5c-2.5,1.7-5,3.4-7.5,5.1c-0.2,0.1-0.4,0.3-0.6,0.4c0,0,0,0,0,0
	c-11,4.6-21.9,4.9-32.9-0.2c-2.8-1.7-5.5-3.3-8-5.3c2.4-4,3.4-8.3,3.6-13c0.1-2.3-0.6-3.5-2.8-4.5c-9.2-4.3-16.4-10.8-22-19.2
	c-5.3-8-8.4-16.8-8.8-26.5c-0.1-1.7-0.3-3.4-0.5-5.2c0.1-1,0.2-2,0.2-3c0.1-10.6,0.2-21.3,0.3-31.9c0-3.1,0.7-6.1,1.8-9
	c4.1-10.4,13.7-16.8,25.3-16.8c16.6,0,33.1,0,49.7,0c3.3,0,6.6,0,10,0.4c11.3,1.3,22,12.4,22.2,23.7
	C192.2,140.2,192.1,152.4,192.1,164.5z"/>
<path class="st1" d="M192.1,164.5c-0.1-12.1,0-24.3-0.2-36.4c-0.2-11.3-10.9-22.4-22.2-23.7c-3.3-0.4-6.6-0.4-10-0.4
	c-16.6,0-33.1,0-49.7,0c-11.6,0-21.2,6.4-25.3,16.8c-1.1,2.9-1.8,5.8-1.8,9c0,10.6-0.2,21.3-0.3,31.9c0,1-0.2,2-0.2,3
	c-4.1,0.4-10.4-3.4-12.2-8.2c-0.7-1.8-1.2-3.6-1.2-5.6c0-9.2-0.3-18.5,0.1-27.7c0.6-16.7,4.9-32.2,15.7-45.4
	c9.3-11.5,21.5-18.3,35.9-21.2c19.3-3.8,37.9-0.9,55.9,6.7c0.7,0.3,1.7,0.4,1.8,1.5c0.1,1.2-1,1.4-1.8,1.7c-1.5,0.7-3,1.3-4.6,1.9
	c-0.8,0.3-2,0.4-1.9,1.6c0.1,1.2,1.3,1,2.2,1.1c8.5,0.8,16.6,3.1,24.1,7.4c7.5,4.3,13.6,10.1,18.5,17.2c0.9,1.3,1,2.2-0.1,3.4
	c-5.7,6.5-8.4,14.2-8.3,22.9c0.1,9.6,0.1,19.3,0,28.9C206.4,159,200.3,164.7,192.1,164.5z"/>
<g>
	<path class="st2" d="M121,238.4c10.9,5,21.9,4.8,32.9,0.2c0.2,0.9-0.5,1.4-0.8,2c-3.8,6.8-0.5,14.5,7,16.5c3.1,0.9,6.3,0.6,9.4,0.9
		c9.9,0.9,18.3,4.9,25.2,11.6c8.6,8.3,12.7,18.7,12.2,30.7c-0.2,4.7,1.4,8,5.6,10.1c-0.6,0-1.2,0.1-1.7,0.1c-48.8,0-97.6,0-146.4,0
		c-0.6,0-1.2,0-1.7-0.1c4.1-2.2,6-5.5,5.5-10.2c-0.3-3.1-0.1-6.2,0.6-9.1c3.8-16.6,13.9-27.2,30.3-32c5-1.5,10.2-1.1,15.2-2
		c7.9-1.4,11.8-9.5,7.8-16.5C121.6,239.9,120.9,239.3,121,238.4z M175.5,301.1C175.5,301.1,175.5,301.1,175.5,301.1
		c2.2,0,4.3,0,6.5,0c0.2,0,0.3,0,0.5,0c2.3-0.2,3.9-1.8,4-4c0.2-2.4-1.2-4.4-3.6-4.6c-4.9-0.5-9.8-0.4-14.7,0
		c-2.4,0.2-3.9,2.3-3.7,4.5c0.2,2.3,1.8,4,4.2,4.1C171,301.2,173.3,301.1,175.5,301.1z"/>
	<path class="st2" d="M212.5,310.4c-4.1-2.1-5.8-5.4-5.6-10.1c0.5-12-3.7-22.4-12.2-30.7c-7-6.8-15.4-10.7-25.2-11.6
		c-3.1-0.3-6.3-0.1-9.4-0.9c-7.5-2.1-10.8-9.8-7-16.5c0.4-0.6,1.1-1.1,0.8-2c0,0,0,0,0,0c0.2-0.1,0.4-0.3,0.6-0.4
		c2.5-1.7,5-3.4,7.5-5.1c3.9,5.1,8.8,8.9,15.3,9.9c3.8,0.6,7.8,0.4,11.6,1.1c17.2,3.1,30.9,17.3,33.1,34.4
		c1.2,9.3,0.3,18.6,0.5,27.9c0,2.3-1.9,4-4.2,4.1C216.3,310.6,214.4,310.5,212.5,310.4z"/>
	<path class="st2" d="M121,238.4c-0.1,0.9,0.6,1.5,1,2.2c4,7,0.1,15.2-7.8,16.5c-5,0.9-10.2,0.5-15.2,2c-16.3,4.8-26.5,15.5-30.3,32
		c-0.7,3-0.9,6.1-0.6,9.1c0.5,4.7-1.3,8-5.5,10.2c-1.9,0-3.8,0.1-5.7,0.1c-2.3,0-4.3-1.7-4.2-4c0.2-9.3-0.9-18.6,0.5-27.9
		c2.6-17.1,12.6-28.2,29-33.6c3.3-1.1,6.8-1.8,10.2-1.7c8.8,0.2,15.5-3.4,20.7-10.3C115.5,235.1,118.3,236.7,121,238.4z"/>
</g>
<path class="st3" d="M154.5,238.2c-0.2,0.1-0.4,0.3-0.6,0.4C154.1,238.5,154.3,238.3,154.5,238.2z"/>
</svg>
